# xmcd
#
# Track frame offsets: 
#        150
#        16247
#        30789
#        47971
#        65488
#        83050
#        104829
#        127034
#        140806
#        159333
#        174575
#        189932
#        209002
#        223584
#        240121
#        254260
#
# Disc length: 3647 seconds
#
# Revision: 1
# Processed by: cddbd v1.5.1PL2 Copyright (c) Steve Scherf et al.
# Submitted via: ExactAudioCopy v0.95a5
#
DISCID=de0e3d10
DTITLE=徐小鳳 - 20世紀光輝印記 Cd1
DYEAR=1900
DGENRE=Folk
TTITLE0=別亦難
TTITLE1=天涯歌女
TTITLE2=不了情
TTITLE3=雙城記
TTITLE4=每一步
TTITLE5=婚紗背後
TTITLE6=流下眼淚\前
TTITLE7=今宵多珍重
TTITLE8=月光小夜曲
TTITLE9=三年
TTITLE10=明月千里寄相思
TTITLE11=真愛又如何
TTITLE12=長城
TTITLE13=南屏晚鐘
TTITLE14=一生所愛
TTITLE15=一縷\情絲
EXTD=
EXTT0=
EXTT1=
EXTT2=
EXTT3=
EXTT4=
EXTT5=
EXTT6=
EXTT7=
EXTT8=
EXTT9=
EXTT10=
EXTT11=
EXTT12=
EXTT13=
EXTT14=
EXTT15=
PLAYORDER=
